<svg width="192" height="192" viewBox="0 0 192 192" fill="none" xmlns="http://www.w3.org/2000/svg">
<path d="M60 145.875C58.0929 145.877 56.2504 145.184 54.8175 143.925L6.81752 101.925C5.97331 101.186 5.29679 100.275 4.83329 99.253C4.36979 98.2311 4.13 97.122 4.13 96C4.13 94.8779 4.36979 93.7688 4.83329 92.747C5.29679 91.7251 5.97331 90.8141 6.81752 90.075L54.8175 48.075C56.3894 46.6995 58.4434 46.0048 60.5275 46.1437C62.6116 46.2826 64.5552 47.2437 65.9306 48.8156C67.3061 50.3875 68.0008 52.4414 67.8619 54.5256C67.723 56.6097 66.7619 58.5532 65.19 59.9287L23.9588 96L65.1863 132.071C66.3929 133.126 67.2489 134.524 67.64 136.078C68.0311 137.633 67.9386 139.269 67.3749 140.77C66.8112 142.27 65.8032 143.563 64.4854 144.475C63.1676 145.387 61.6028 145.876 60 145.875ZM132 145.875C130.397 145.876 128.832 145.388 127.513 144.477C126.195 143.565 125.186 142.272 124.622 140.771C124.058 139.271 123.965 137.634 124.356 136.079C124.747 134.525 125.603 133.126 126.81 132.071L168.041 96L126.814 59.9287C125.242 58.5532 124.281 56.6097 124.142 54.5256C124.003 52.4414 124.698 50.3875 126.073 48.8156C127.449 47.2437 129.392 46.2826 131.476 46.1437C133.56 46.0048 135.614 46.6995 137.186 48.075L185.186 90.075C186.03 90.8141 186.707 91.7251 187.17 92.747C187.634 93.7688 187.874 94.8779 187.874 96C187.874 97.122 187.634 98.2311 187.17 99.253C186.707 100.275 186.03 101.186 185.186 101.925L137.186 143.925C135.753 145.185 133.909 145.878 132 145.875ZM78 163.875C76.7736 163.875 75.5643 163.588 74.4683 163.038C73.3723 162.488 72.42 161.689 71.6872 160.706C70.9544 159.722 70.4614 158.581 70.2475 157.374C70.0336 156.166 70.1046 154.925 70.455 153.75L106.455 33.75C106.726 32.7317 107.199 31.7782 107.845 30.9459C108.492 30.1137 109.299 29.4196 110.218 28.9049C111.138 28.3901 112.151 28.0652 113.199 27.9493C114.246 27.8334 115.306 27.9288 116.316 28.2301C117.326 28.5313 118.265 29.0321 119.077 29.7029C119.89 30.3736 120.56 31.2007 121.047 32.135C121.535 33.0694 121.829 34.0921 121.914 35.1424C121.999 36.1928 121.872 37.2495 121.541 38.25L85.5413 158.25C85.057 159.874 84.0616 161.299 82.703 162.312C81.3443 163.326 79.695 163.874 78 163.875Z" fill="white"/>
</svg>
