<svg width="160" height="26" viewBox="0 0 160 26" fill="none" xmlns="http://www.w3.org/2000/svg">
<path d="M28.3333 20.4167L34.9999 13.75L28.3333 7.08333" stroke="white" stroke-width="2" stroke-linecap="round" stroke-linejoin="round"/>
<path d="M13.3334 7.08333L6.66675 13.75L13.3334 20.4167" stroke="white" stroke-width="2" stroke-linecap="round" stroke-linejoin="round"/>
<path d="M25.0001 5.41667L16.6667 22.0833" stroke="white" stroke-width="2" stroke-linecap="round" stroke-linejoin="round"/>
<path d="M61.4 22.99C59.928 22.99 58.672 22.734 57.632 22.222C56.608 21.71 55.808 20.974 55.232 20.014C54.672 19.038 54.368 17.878 54.32 16.534C54.304 15.846 54.296 15.11 54.296 14.326C54.296 13.526 54.304 12.774 54.32 12.07C54.368 10.742 54.672 9.606 55.232 8.662C55.808 7.718 56.616 6.99 57.656 6.478C58.712 5.966 59.96 5.71 61.4 5.71C62.568 5.71 63.592 5.87 64.472 6.19C65.352 6.494 66.08 6.894 66.656 7.39C67.248 7.87 67.688 8.39 67.976 8.95C68.28 9.51 68.44 10.03 68.456 10.51C68.472 10.654 68.432 10.774 68.336 10.87C68.24 10.966 68.112 11.014 67.952 11.014H65.48C65.32 11.014 65.2 10.982 65.12 10.918C65.04 10.854 64.968 10.758 64.904 10.63C64.776 10.294 64.576 9.966 64.304 9.646C64.032 9.31 63.664 9.03 63.2 8.806C62.736 8.582 62.136 8.47 61.4 8.47C60.312 8.47 59.44 8.758 58.784 9.334C58.144 9.91 57.8 10.862 57.752 12.19C57.704 13.582 57.704 14.99 57.752 16.414C57.8 17.774 58.152 18.75 58.808 19.342C59.48 19.934 60.36 20.23 61.448 20.23C62.168 20.23 62.808 20.102 63.368 19.846C63.944 19.59 64.392 19.19 64.712 18.646C65.048 18.102 65.216 17.406 65.216 16.558V15.814H62.288C62.128 15.814 61.992 15.758 61.88 15.646C61.768 15.534 61.712 15.39 61.712 15.214V13.942C61.712 13.766 61.768 13.622 61.88 13.51C61.992 13.398 62.128 13.342 62.288 13.342H68.024C68.2 13.342 68.336 13.398 68.432 13.51C68.544 13.622 68.6 13.766 68.6 13.942V16.462C68.6 17.806 68.304 18.966 67.712 19.942C67.136 20.918 66.304 21.67 65.216 22.198C64.144 22.726 62.872 22.99 61.4 22.99ZM72.2527 22.75C72.0927 22.75 71.9567 22.694 71.8447 22.582C71.7327 22.47 71.6767 22.334 71.6767 22.174V6.55C71.6767 6.374 71.7327 6.23 71.8447 6.118C71.9567 6.006 72.0927 5.95 72.2527 5.95H82.8127C82.9887 5.95 83.1327 6.006 83.2447 6.118C83.3567 6.23 83.4127 6.374 83.4127 6.55V8.134C83.4127 8.294 83.3567 8.43 83.2447 8.542C83.1327 8.654 82.9887 8.71 82.8127 8.71H74.9167V12.958H82.2847C82.4607 12.958 82.6047 13.014 82.7167 13.126C82.8287 13.222 82.8847 13.358 82.8847 13.534V15.022C82.8847 15.198 82.8287 15.342 82.7167 15.454C82.6047 15.55 82.4607 15.598 82.2847 15.598H74.9167V19.99H83.0047C83.1807 19.99 83.3247 20.046 83.4367 20.158C83.5487 20.27 83.6047 20.414 83.6047 20.59V22.174C83.6047 22.334 83.5487 22.47 83.4367 22.582C83.3247 22.694 83.1807 22.75 83.0047 22.75H72.2527ZM87.2064 22.75C87.0304 22.75 86.8864 22.694 86.7744 22.582C86.6624 22.47 86.6064 22.334 86.6064 22.174V6.55C86.6064 6.374 86.6624 6.23 86.7744 6.118C86.8864 6.006 87.0304 5.95 87.2064 5.95H89.1024C89.3264 5.95 89.4944 6.014 89.6064 6.142C89.7184 6.254 89.7904 6.342 89.8224 6.406L94.4544 15.046L99.1344 6.406C99.1664 6.342 99.2384 6.254 99.3504 6.142C99.4624 6.014 99.6304 5.95 99.8544 5.95H101.726C101.902 5.95 102.046 6.006 102.158 6.118C102.27 6.23 102.326 6.374 102.326 6.55V22.174C102.326 22.334 102.27 22.47 102.158 22.582C102.046 22.694 101.902 22.75 101.726 22.75H99.7104C99.5344 22.75 99.3904 22.694 99.2784 22.582C99.1824 22.47 99.1344 22.334 99.1344 22.174V11.782L95.7744 18.19C95.6944 18.334 95.5904 18.462 95.4624 18.574C95.3344 18.67 95.1664 18.718 94.9584 18.718H93.9744C93.7504 18.718 93.5744 18.67 93.4464 18.574C93.3344 18.462 93.2384 18.334 93.1584 18.19L89.7984 11.782V22.174C89.7984 22.334 89.7424 22.47 89.6304 22.582C89.5184 22.694 89.3824 22.75 89.2224 22.75H87.2064ZM106.636 22.75C106.476 22.75 106.34 22.694 106.228 22.582C106.116 22.47 106.06 22.334 106.06 22.174V6.526C106.06 6.366 106.116 6.23 106.228 6.118C106.34 6.006 106.476 5.95 106.636 5.95H108.868C109.028 5.95 109.164 6.006 109.276 6.118C109.388 6.23 109.444 6.366 109.444 6.526V19.894H117.052C117.228 19.894 117.372 19.95 117.484 20.062C117.596 20.174 117.652 20.318 117.652 20.494V22.174C117.652 22.334 117.596 22.47 117.484 22.582C117.372 22.694 117.228 22.75 117.052 22.75H106.636ZM120.557 22.75C120.397 22.75 120.261 22.694 120.149 22.582C120.037 22.47 119.981 22.334 119.981 22.174V6.55C119.981 6.374 120.037 6.23 120.149 6.118C120.261 6.006 120.397 5.95 120.557 5.95H131.117C131.293 5.95 131.437 6.006 131.549 6.118C131.661 6.23 131.717 6.374 131.717 6.55V8.134C131.717 8.294 131.661 8.43 131.549 8.542C131.437 8.654 131.293 8.71 131.117 8.71H123.221V12.958H130.589C130.765 12.958 130.909 13.014 131.021 13.126C131.133 13.222 131.189 13.358 131.189 13.534V15.022C131.189 15.198 131.133 15.342 131.021 15.454C130.909 15.55 130.765 15.598 130.589 15.598H123.221V19.99H131.309C131.485 19.99 131.629 20.046 131.741 20.158C131.853 20.27 131.909 20.414 131.909 20.59V22.174C131.909 22.334 131.853 22.47 131.741 22.582C131.629 22.694 131.485 22.75 131.309 22.75H120.557ZM133.975 22.75C133.831 22.75 133.711 22.702 133.615 22.606C133.519 22.51 133.471 22.39 133.471 22.246C133.471 22.198 133.479 22.15 133.495 22.102C133.511 22.054 133.527 22.006 133.543 21.958L138.919 14.182L133.879 6.742C133.831 6.646 133.807 6.55 133.807 6.454C133.807 6.31 133.855 6.19 133.951 6.094C134.047 5.998 134.159 5.95 134.287 5.95H136.759C136.951 5.95 137.103 5.998 137.215 6.094C137.327 6.19 137.423 6.294 137.503 6.406L141.031 11.59L144.583 6.406C144.647 6.294 144.735 6.19 144.847 6.094C144.975 5.998 145.135 5.95 145.327 5.95H147.655C147.799 5.95 147.919 5.998 148.015 6.094C148.111 6.19 148.159 6.31 148.159 6.454C148.159 6.55 148.127 6.646 148.063 6.742L143.047 14.182L148.423 21.958C148.455 22.006 148.479 22.054 148.495 22.102C148.511 22.15 148.519 22.198 148.519 22.246C148.519 22.39 148.463 22.51 148.351 22.606C148.255 22.702 148.143 22.75 148.015 22.75H145.471C145.279 22.75 145.127 22.702 145.015 22.606C144.903 22.51 144.815 22.414 144.751 22.318L140.911 16.894L137.143 22.318C137.079 22.414 136.991 22.51 136.879 22.606C136.767 22.702 136.607 22.75 136.399 22.75H133.975Z" fill="white"/>
</svg>
